<svg id="Layer_1" data-name="Layer 1" xmlns="http://www.w3.org/2000/svg" viewBox="0 0 237.4 203.62"><defs><style>.cls-1{fill:#fff;}</style></defs><title>sunflowerlogo</title><path class="cls-1" d="M240,151.88l-.84.21v19.77c-2.8,6.67-5.37,13.44-8.46,20-2.65,5.59-5.37,11.3-9,16.23-3,4-7.33,6.91-11.24,10.11a3.55,3.55,0,0,1-3.19,0,2.78,2.78,0,0,1-.62-2.69c4.86-7.51-.5-13-3.56-19s-6-11.73-9.1-17.73a61.66,61.66,0,0,1-4.31,5.39c-1.08,1.08-3.25,2.68-3.83,2.31a8.14,8.14,0,0,1-3-4.31c-1-3.35-1.55-6.86-3.32-10.55-1.44,3.59-2.92,7.17-4.31,10.77-3.38,8.74-10.39,13.26-18.88,15.57-4.89,1.33-10.06,1.63-15.11,2.31-1,.14-2.47.33-3-.2-3.82-4.16-7.08-.88-10.49.58-.46.2-.81.8-1.25.86-2.3.27-4.61.42-6.91.62-.07-2.07-.47-4.2-.15-6.2,1.34-8.33,4.86-16.87,3.86-24.87-1.21-9.71,2.65-16.43,7.28-23.57.63-1,1.49-2.22,2.46-2.46,3.43-.86,4.51-2,2.72-5.7-.55-1.12,1.62-4.06,3.14-5.57,1.2-1.19,3.31-1.46,5.52-2.34-3.9-4.84-16.13-5.46-9-14.94-1.47-4-2.7-7.31-3.93-10.63l7.07-2.37c-.95-3.44-2.08-7.53-3.43-12.39l-5.6-1c1.79,6.49-2,5.89-6.68,4.54,1.37,2.8,2.68,4.63,3.13,6.65.39,1.75-.2,3.71-.36,5.58a29.12,29.12,0,0,1-5-.64c-1.36-.4-2.56-1.37-4.77-2.63.35,2.63.62,4.23.76,5.84.16,1.87.71,3.91.17,5.58-.83,2.6-2.44,5-3.72,7.42l-6-4.07a40.48,40.48,0,0,1-.83,5.56c-.85,2.94-1.33,6.44-3.26,8.45-1.21,1.26-4.8.24-5.79.24-1-4.64-1.7-8.09-2.42-11.54H93.07c-.76,2.18-1.15,4.61-2.39,6.46s-3.27,2.95-5,4.39c-.91-1.75-2.22-3.41-2.64-5.28-.66-3-.74-6-1.24-10.76-3.8,2.72-6.84,4.65-9.59,6.93-2.53,2.1-4.1,1.37-4.91-1.35-.58-1.95-.54-4.09-.83-6.59a2.29,2.29,0,0,1-1.06,0c-1.82-.4-4.26-.37-5.23-1.52-.78-.93-.07-3.45.49-5.09a44,44,0,0,1,2.94-5.81l-1.17-1.19c-2,.51-4.07,1.09-6.12,1.51-1.8.37-3.63.56-5.44.83-.09-2.28-.71-4.71-.1-6.79.53-1.8,2.37-3.28,3.79-4.74.8-.83,1.93-1.34,2.29-3-3.76-.21-7.57-.13-11.28-.7C40.27,87.55,35,86.29,29.7,85.14a4,4,0,0,1-2.2-1.2c-2.78-3.58-6.42-4.76-10.83-4.64-1,0-2.91-1.35-2.9-2.07,0-1.27,1-3.45,1.88-3.66C25.79,71.3,29.29,61.84,35.26,55.29,41,49.05,46.71,43.73,54.45,43c.95-3.09,1.2-6.9,2.47-7.28,2.07-.62,4.82,1,6.49,1.44,1.08-3.92,2.12-8.15,3.47-12.27.29-.88,2-2.18,2.51-2,3.59,1.64,4.64-1.06,6.8-2.9s5.5-1.87,8.34-2.7c.55,2.13,1.11,4.27,1.64,6.41.19.73.29,1.49.66,3.47,2.5-4.15,4.24-7.38,6.36-10.34.74-1,2.44-1.35,3.7-2,.64,1.27,1.69,2.49,1.83,3.81.5,4.43.67,8.9,1,14.5,3.66-4.09,6.28-7.11,9-10,.6-.63,2-1.39,2.42-1.13A4,4,0,0,1,113,24.7c.47,5.72.73,11.46,1.09,17.75,2-.11,4.15-.75,5.9-.2a106.15,106.15,0,0,1,13.42,5.33c.45.22.15,3.28-.63,4.47s-2.56,1.3-3.95,1.93c.35.6.44,1,.68,1.13,2.36,1.43,4.74,2.82,7.12,4.23-1.59,1.74-3.12,3.55-4.8,5.21-2,2-4.17,3.9-6.48,6l11.2,10.11-1,1.07a75.69,75.69,0,0,0,9.45.9c1,0,2.23-1.63,2.85-2.78s.62-4,1.21-4.13a9.82,9.82,0,0,1,5.26.89c1.63.69,3,2,5.83,4.08-.72-5-1-8.5-1.76-11.87-.9-3.92.2-5.33,4.33-5.13,3.23.16,7,.33,9.66-1.1,4.18-2.22,6.17-.85,8.37,2.44a46.19,46.19,0,0,0,4.65,5.18c2.19-4.16,3.34-9.61,6.52-11.38,2.87-1.6,8,.86,12.11,1.48a35.89,35.89,0,0,1,4.57.5c2.95.83,4.15,2.84,3.09,5.86a29.09,29.09,0,0,0-2.17,8.85c1.84-1.3,3.61-2.7,5.53-3.88a21.62,21.62,0,0,1,3.58-1.45c.29,1.39.62,2.76.84,4.16a12.38,12.38,0,0,1,0,2l1.24-.6c1.22,1.79,3.23,3.48,3.46,5.38.29,2.34-.89,4.86-1.44,7.3,5.28,1.28,5.88.74,5.47-3.85-.2-2.18-.71-4.84.27-6.46s3.94-3.36,5.54-3c1.43.34,2.18,3.5,3.31,5.55-3.37.65-5.38.82-7.13,1.58-.31.14,0,3.59.84,4.05,1.61.91,3.8.77,5.75,1.07L235,92.93c-1.45-.08-3.56-.64-3.87-.13a5.26,5.26,0,0,0-.29,4.1c.24.6,2.3.93,3.39.69,5.77-1.25,6.53-4,3-10.24,5.27,2.84,9.89,9.47,10.24,15l-4.66,1.15c1.89,3,1.89,3,8.41,1.3V111l-6.46,4c5.66,10.48,2.79,21.06,3.19,31.44l-1.55.58-4.18-4.58c1.73-2.94,2.92-5,4.11-7l-1.24-.73c-2.62,4.09-4.13,4.46-8.41-.21-2.7-3-4.8-3-7.9-1.42l14,16.18M208,97.74c-1.41-8.21-1.1-9.2,3.19-10.19l-3.6,6.27c7.62-4.1,9.38-9.16,6.65-15.73-9,8-18.33,23.57-16.71,28.31,3.15-3.45,3.29-10.53,10.6-8.79l-6.59,11.52c6.17-1.62,11.92-3.1,17.63-4.68.51-.15.94-.94,1.23-1.53,1.25-2.59,2.43-5.21,3.58-7.71Zm-43,71.93c-6.76-6.57-10.07-.88-13.9,3l2.4-6.25-.89-.43-24.12,26.79c11.89.27,22.64,4.57,32.32-2.43-.52-1.48-1-2.73-1.19-3.37,2.36.22,4.62.87,6.65.45,1.26-.26,2.19-2.16,3.4-3.47l-4.52-2.11,1.32-.56C166,177.17,165.45,173,165,169.67ZM63.19,54.89c-.9-3.2-3.57-6.57-8.22-6.2-5,.4-10.11,1.52-13.46,6.16-2.17,3-4.69,5.76-6.92,8.73a13.76,13.76,0,0,0-1.34,3.29c1.2.34,2.59,1.24,3.56.91a91.54,91.54,0,0,0,11.68-4.69C53.34,60.67,58,57.83,63.19,54.89Zm149,147.55c5.44-16.1,6.25-27.2,2.11-34.46-.21,4.74-.4,8.91-.63,14.09l-8.5-7.87c-.41,2.2-1,3.86-1,5.47A41.33,41.33,0,0,0,212.17,202.44Zm-37.93-69c-8.66-3.57-19.9.57-28.05,10.13C158.88,150,167.55,144.37,174.24,133.46ZM140.33,94.37c1.32,2.68,2,5.4,3.72,7.29,6.17,7,15.78,6.34,23.49,10,.44.21,1.53-.91,2.31-1.41-1.46-2.06-2.65-4.42-4.49-6-.84-.74-3,0-4.52.08l-.2,1.37-2.93-2.15c.64-.93,1.8-1.9,1.67-2.67S157.91,99.31,157,99C151.81,97.49,146.63,96.12,140.33,94.37Zm24.22-20.1c-1.4,12.44,6.18,20.94,15.88,28.43,2-3.59.88-10.72-1.79-13.5C173.78,84.15,169,79,164.55,74.27Zm-3,84.36c9.5-.19,17.12-5.08,20.25-13.66.58-1.62-.22-3.89-.85-5.7-.19-.53-2.27-1-3-.61-1.93,1-4.07,2.1-5.31,3.77C168.77,147.66,165.27,153.17,161.59,158.63ZM103.8,61.8c8.54,1,16-3.24,22.41-12.47C118.57,44.28,107.58,50.25,103.8,61.8ZM205.08,123c1,1.56,2.4,2.77,2.69,4.19.53,2.58,1.92,2.87,4.22,3.8,7.68,3.12,12-3.71,18.12-4.69a47.8,47.8,0,0,0-5-1.81,24.56,24.56,0,0,1-4.53-2.26C215.12,118.66,210.83,118.8,205.08,123Zm-3.65,17.25c-4.37,9.49-.7,23.46,7.51,29.33.3-4.17,1.65-8.35.6-11.78C207.72,151.9,204.4,146.47,201.43,140.25ZM204,70.34C193.31,77.58,189.63,87.71,193.4,99,197.28,89.6,205.27,82.12,204,70.34Zm-71.48,80.14c-1.7,4.83-3.92,9.3-4.74,14s-.17,9.53-.17,14.32l1.08.27c2.82-5.49,5.65-11,8.77-17.08v-7.07ZM55.37,68.62a66.16,66.16,0,0,1,8.33,2.11c2.67,1,5,3.25,7.7,3.82,1.59.34,3.92-1.21,5.36-2.52.7-.64.73-3.17,0-4C71.72,61.74,61.76,61.92,55.37,68.62Zm122,46.48,5.72-2.42c-6.17-1.89-8.07-1.33-8.67,2-2,11,11.37,24.89,22.33,23.22.69-.1,1.29-.76,1.71-1-4.7-2.72-9.38-5-13.6-8C180.27,125.64,175.39,122.22,177.35,115.1ZM64,41.73l-1.3,1.42c2,4.49,3.87,9,5.93,13.48,2.37,5.13,8.2,6.72,13.64,3.06ZM227.81,109c3.85,3.92,15.19,2,10.41,13.42,2.33-1.25,2.33-1.25,1.85-11.76l2.9,2.15,1.2-1.19-5.58-6.39-1-4-4.47,2.25-3.36-3.07C229,103.46,228.49,105.91,227.81,109ZM107,81.84c-3.74,9.68.35,15.36,13,18C118.58,91.69,114.13,85.76,107,81.84ZM87.55,89.37l1.7.31c6.58-6.76,10.63-14.93,5.47-26.57-2.46-5.53-3.3-6.41-7.08-3.53,1.51,2.27,3.79,4.28,4.23,6.64,1.12,6.07.72,12.14-2.72,17.7C88.18,85.47,88.06,87.54,87.55,89.37ZM56.14,97.28c5.11-.66,9.61-.71,13.74-2,2.85-.86,5.39-3.18,7.69-5.26.84-.76,1-2.84.63-4.09-.16-.54-2.47-.92-3.64-.64A32.64,32.64,0,0,0,56.14,97.28Zm16.77,16.34,1.37,1.19c1.87-1.23,4.4-2,5.48-3.76a43.74,43.74,0,0,0,5-11c.52-1.81-.76-4.15-1.23-6.25-1.83,1.33-4.55,2.27-5.32,4.06C76,102.92,74.61,108.34,72.91,113.62ZM170,172.56c10.28-3.76,21.36-24.72,16.54-31.77C185.75,154,173.29,160.63,170,172.56ZM128.38,79.22c-6.14-6.5-14.16-5-22.22-7.21C111.55,83.21,119.12,83.55,128.38,79.22ZM70.68,31.55c-3.13,5.34,2.06,14.68,13.72,22.16-1.3-4.27-2.68-8.62-5.07-12.29S73.52,34.72,70.68,31.55ZM218.11,154c-2-16.74-2-16.74-6.92-17.51l-5.7,4.33ZM180.56,84.8c2.29-8.54.85-13.71-5.4-18.11-1.1,1.91-3,3.74-3,5.6C172,78.18,176.11,81.48,180.56,84.8Zm21.72,31.79c2.09-.24,3-.08,3.57-.44,5.66-3.43,11-2.79,16.06,1.15,3.49,2.72,6,.15,9.23-1.16C217.92,108.67,211.41,108.6,202.28,116.59ZM46.07,70.66,32.23,73.3,31.87,72l-4.41,4.94H49.64C48,74.09,46.84,72,46.07,70.66Zm128.74,33-19.6-21.15c-.19,3.1-.1,5.73,1,7.87,1.25,2.5,2.92,5.21,5.16,6.68C165.17,99.58,169.58,101.19,174.81,103.68Zm-67-71.45c-3.78,2.34-5.35,5.64-5.68,10-.25,3.35-1.57,6.61-2.25,9.95-.25,1.27,0,2.64,0,5.42C105,48.83,111.76,42.24,107.79,32.23ZM92.5,52.46c6.13-3.5,5.78-13.41.32-27C89.09,34.81,95.14,43.07,92.5,52.46Zm6.67,72.05,1.91-.41c1.75-9.58-.18-19.82-5.85-23.69C96.69,109.32,97.93,116.92,99.17,124.51Zm93.07-.24,2.29-2.09c.72,2.63.81,5.19,2.05,6.93s3.62,2.59,5.39,3.76c1.49-4.94-9.75-19.5-15.83-19.67C188.12,116.79,190.12,120.41,192.24,124.27ZM103.5,95.75c-1.88,4.92,2.08,14.54,7.94,19.26C113.37,106.71,109.48,100.8,103.5,95.75Zm90.91,47.09c-3.54,12.74,2,23.19,5.07,34.1.71-3.23,1.79-7,.51-9.52A52.41,52.41,0,0,1,194.41,142.84Zm-53.94-21.08c7.68,8.53,15.23,1.95,22.86-.15l-.08-1.46ZM70.65,81.93l-.21-1.84C61.84,74.6,59.38,75,54,83.83ZM80,22.66c-4.67,11.25,5,15.45,6.9,22.69l2.16-.86C86.24,37.64,83.4,30.79,80,22.66Zm11.76,78.15a13.38,13.38,0,0,0-2.15,19.5C90.29,114.28,91,108.25,91.78,100.81ZM111.3,67.27c5.75,3.41,12.65.39,17.08-6.51C120.46,56.78,118,66.13,111.3,67.27ZM226.19,141c1.56,4,2.37,7.58,6.56,4.52-4.05-7.72-8.29-10.54-12-8.24l3.51,8.53,1-.29C225.54,144.47,225.74,143.41,226.19,141Zm-39.6,38.52a14.91,14.91,0,0,0,1.89-18.4C183.89,166.66,186.49,172.66,186.59,179.52Zm-48.92-69c6.35,7.73,14.14,4.46,21.63,2.83Zm48.74-27.89c7.49-8.93,9.6-15,7.67-20.23C191.43,69.4,188.92,76,186.41,82.63Zm27.05,127.6c5-3.87,11.1-17.49,9.43-21.64Zm-70.76-72.8.7,1.73,15.19-9.34-.71-1.24ZM81.54,74.36c.21,3.38.37,5.81.56,8.93C86.52,79.14,86.51,77,81.54,74.36Z" transform="translate(-13.77 -14.92)"/><path class="cls-1" d="M138.68,190.57,134,190l5.71-7.74C139.26,185.82,139,187.83,138.68,190.57Z" transform="translate(-13.77 -14.92)"/></svg>